<svg xmlns="http://www.w3.org/2000/svg" width="1536" height="1650" viewBox="0 0 1536 1650"><rect width="100%" height="100%" fill="#F6F6F1"/><text x="32" y="66" font-family="Arial,sans-serif" font-size="36" font-weight="800" fill="#16202F">The affiliate collection / 02</text><text x="32" y="101" font-family="Arial,sans-serif" font-size="16" fill="#55606F">22 fictional identities · A little less uniform. A little more character.</text><g transform="translate(32 140)"><rect width="352" height="207" rx="18" fill="#B8F36B"/><g transform="translate(0 8) scale(.7333)"><g color="#19302B" fill="#19302B"><g transform="translate(35 72) scale(0.9)"><path d="M31 10v27q0 19 19 19t19-19V10M44 10v27M56 10v27M50 56v34" fill="none" stroke="currentColor" stroke-width="7" stroke-linecap="round" stroke-linejoin="round"/></g><text x="148" y="132" text-anchor="start" font-family="ui-monospace, Menlo, Consolas, monospace" font-size="35" font-weight="800" letter-spacing="0">ForkMyGits</text><text x="150" y="160" text-anchor="start" font-family="Arial, sans-serif" font-size="8" font-weight="600" letter-spacing="1.5">DEVELOP SOMETHING GOOD</text></g></g><text x="4" y="229" font-family="Arial,sans-serif" font-size="12" fill="#55606F">01 / ForkMyGits</text></g><g transform="translate(408 140)"><rect width="352" height="207" rx="18" fill="#EBDDFA"/><g transform="translate(0 8) scale(.7333)"><g color="#652B91" fill="#652B91"><text x="80" y="80" text-anchor="start" font-family="Avenir Next, Trebuchet MS, Arial, sans-serif" font-size="44" font-weight="800" letter-spacing="0">bewbs</text><text x="137" y="128" text-anchor="start" font-family="Avenir Next, Trebuchet MS, Arial, sans-serif" font-size="44" font-weight="800" letter-spacing="0">bewbs</text><text x="194" y="176" text-anchor="start" font-family="Avenir Next, Trebuchet MS, Arial, sans-serif" font-size="44" font-weight="800" letter-spacing="0">bewbs</text><g transform="translate(335 57) scale(0.47)"><path d="M17 69V30h15q19 0 19 17T32 64H17M50 69V30h15q19 0 19 17T65 64H50" fill="none" stroke="currentColor" stroke-width="8" stroke-linecap="round"/><circle cx="77" cy="78" r="5"/></g><text x="82" y="213" text-anchor="start" font-family="Arial, sans-serif" font-size="8" font-weight="600" letter-spacing="1.5">A LITTLE MORE PERSONAL</text></g></g><text x="4" y="229" font-family="Arial,sans-serif" font-size="12" fill="#55606F">02 / BewbsBewbsBewbs</text></g><g transform="translate(784 140)"><rect width="352" height="207" rx="18" fill="#F3E4D4"/><g transform="translate(0 8) scale(.7333)"><g color="#62432D" fill="#62432D"><text x="240" y="93" text-anchor="middle" font-family="Georgia, Times New Roman, serif" font-size="37" font-weight="800" letter-spacing="0">UKBunnies</text><text x="240" y="144" text-anchor="middle" font-family="Georgia, Times New Roman, serif" font-size="37" font-weight="800" letter-spacing="0">GetHotBrown</text><text x="240" y="195" text-anchor="middle" font-family="Georgia, Times New Roman, serif" font-size="37" font-weight="800" letter-spacing="0">Cocoa</text></g></g><text x="4" y="229" font-family="Arial,sans-serif" font-size="12" fill="#55606F">03 / UKBunniesGetHotBrownCocoa</text></g><g transform="translate(1160 140)"><rect width="352" height="207" rx="18" fill="#E6EDDF"/><g transform="translate(0 8) scale(.7333)"><g color="#315844" fill="#315844"><text x="240" y="97" text-anchor="middle" font-family="Georgia, Times New Roman, serif" font-size="42" font-weight="800" letter-spacing="0">FacialBook-</text><text x="240" y="142" text-anchor="middle" font-family="Georgia, Times New Roman, serif" font-size="42" font-weight="800" letter-spacing="0">The Organic</text><text x="240" y="187" text-anchor="middle" font-family="Georgia, Times New Roman, serif" font-size="42" font-weight="800" letter-spacing="0">Beauty Blog</text></g></g><text x="4" y="229" font-family="Arial,sans-serif" font-size="12" fill="#55606F">04 / FacialBook- The Organic Beauty Blog</text></g><g transform="translate(32 384)"><rect width="352" height="207" rx="18" fill="#F5E8A9"/><g transform="translate(0 8) scale(.7333)"><g color="#246045" fill="#246045"><g transform="translate(199 24) scale(0.82)"><rect x="34" y="12" width="32" height="59" rx="16"/><path d="M47 70Q19 69 14 38q34 11 36 40Q79 63 88 39 59 45 50 83" fill="none" stroke="currentColor" stroke-width="6"/><path d="M44 24v33M55 24v33M38 33h23M38 46h23" stroke="#F5E8A9" stroke-width="3"/></g><text x="240" y="159" text-anchor="middle" font-family="Avenir Next, Trebuchet MS, Arial, sans-serif" font-size="42" font-weight="800" letter-spacing="0">cornhub</text><text x="240" y="188" text-anchor="middle" font-family="Arial, sans-serif" font-size="8" font-weight="600" letter-spacing="1.5">GOOD THINGS GROW HERE</text></g></g><text x="4" y="229" font-family="Arial,sans-serif" font-size="12" fill="#55606F">05 / Cornhub</text></g><g transform="translate(408 384)"><rect width="352" height="207" rx="18" fill="#E0EAFE"/><g transform="translate(0 8) scale(.7333)"><g color="#2446AA" fill="#2446AA"><text x="47" y="143" text-anchor="start" font-family="Avenir Next, Trebuchet MS, Arial, sans-serif" font-size="43" font-weight="800" letter-spacing="0">youjiggle</text><g transform="translate(329 84) scale(0.8)"><path d="M28 33q5-13 13-6 9-10 17-1 11-7 15 7l12 40q-35 17-70 0Z"/><path d="m34 41-6 27m23-31v37m15-33 7 27" fill="none" stroke="#E0EAFE" stroke-width="3" stroke-linecap="round"/><path d="M10 84q40 13 80 0M12 38q-7 10-3 20m79-20q7 10 3 20" fill="none" stroke="currentColor" stroke-width="3.5" stroke-linecap="round"/></g><text x="50" y="174" text-anchor="start" font-family="Arial, sans-serif" font-size="8" font-weight="600" letter-spacing="1.5">FIND YOUR GROOVE</text></g></g><text x="4" y="229" font-family="Arial,sans-serif" font-size="12" fill="#55606F">06 / YouJiggle</text></g><g transform="translate(784 384)"><rect width="352" height="207" rx="18" fill="#F9E3E6"/><g transform="translate(0 8) scale(.7333)"><g color="#A52C43" fill="#A52C43"><text x="400" y="101" text-anchor="end" font-family="Georgia, Times New Roman, serif" font-size="59" font-weight="500" letter-spacing="0">red</text><text x="400" y="159" text-anchor="end" font-family="Georgia, Times New Roman, serif" font-size="59" font-weight="500" letter-spacing="0">pube</text><g transform="translate(72 75) scale(0.82)"><path d="M23 82C7 58 21 25 46 25C73 25 81 63 58 69C36 75 24 49 41 39C57 29 76 41 78 21" fill="none" stroke="currentColor" stroke-width="4.5" stroke-linecap="round"/></g><text x="399" y="192" text-anchor="end" font-family="Arial, sans-serif" font-size="8" font-weight="600" letter-spacing="1.5">THE INDEPENDENT EDIT</text></g></g><text x="4" y="229" font-family="Arial,sans-serif" font-size="12" fill="#55606F">07 / Red pube</text></g><g transform="translate(1160 384)"><rect width="352" height="207" rx="18" fill="#E2ECF1"/><g transform="translate(0 8) scale(.7333)"><g color="#1B455C" fill="#1B455C"><text x="240" y="78" text-anchor="middle" font-family="Georgia, Times New Roman, serif" font-size="43" font-weight="500" letter-spacing="0">YBooks</text><g transform="translate(204 102) scale(0.72)"><path d="M13 20l37 18 37-18v49L50 86 13 69ZM50 38v48" fill="none" stroke="currentColor" stroke-width="5"/><path d="M28 14l22 24 22-24" fill="none" stroke="currentColor" stroke-width="5"/></g><text x="240" y="206" text-anchor="middle" font-family="Arial, sans-serif" font-size="8" font-weight="600" letter-spacing="1.5">OPEN ANOTHER WORLD</text></g></g><text x="4" y="229" font-family="Arial,sans-serif" font-size="12" fill="#55606F">08 / YBooks</text></g><g transform="translate(32 628)"><rect width="352" height="207" rx="18" fill="#E7EBF0"/><g transform="translate(0 8) scale(.7333)"><g color="#2A3240" fill="#2A3240"><g transform="translate(184 15) scale(1.12)"><path d="M44 19H21v62h23M56 19h23v62H56" fill="none" stroke="currentColor" stroke-width="7"/><path d="M38 61V39l12 14 12-14v22" fill="none" stroke="currentColor" stroke-width="5"/></g><text x="240" y="176" text-anchor="middle" font-family="Arial, Helvetica, sans-serif" font-size="30" font-weight="800" letter-spacing="0">C M C C</text><text x="240" y="204" text-anchor="middle" font-family="Arial, sans-serif" font-size="8" font-weight="600" letter-spacing="1.5">CULTURE · MUSIC · COMMUNITY</text></g></g><text x="4" y="229" font-family="Arial,sans-serif" font-size="12" fill="#55606F">09 / CMCC</text></g><g transform="translate(408 628)"><rect width="352" height="207" rx="18" fill="#ECE5EF"/><g transform="translate(0 8) scale(.7333)"><g color="#2C2635" fill="#2C2635"><g transform="translate(306 13) scale(0.82)"><g fill="#111111" stroke="#111111"><path d="M28 56C21 52 9 38 8 27q15 0 24 21C24 33 23 16 29 12q13 10 13 33 15-8 21-2l1-17q0-13 12-13 14 0 14 14l-8 14q5 14-3 24-12 16-32 12-22-1-19-21Z" stroke="none"/><path d="M68 16q-7-11 0-12 4 0 5 6 1-10 6-8 4 1 2 9 6-8 9-3 2 4-6 10ZM88 24l11 5-12 5ZM80 36q12 3 7 11-5 5-9-6Z" stroke="none"/><path d="m48 76-3 14-10 5m10-5 9 5m10-20-1 16-9 5m9-5 10 4" fill="none" stroke-width="3.5" stroke-linecap="round"/></g></g><text x="392" y="145" text-anchor="end" font-family="Georgia, Times New Roman, serif" font-size="35" font-weight="500" letter-spacing="0">Avam Cemani</text><text x="392" y="185" text-anchor="end" font-family="Georgia, Times New Roman, serif" font-size="38" font-weight="500" letter-spacing="0">Cock</text><text x="393" y="215" text-anchor="end" font-family="Arial, sans-serif" font-size="8" font-weight="600" letter-spacing="1.5">RARE BREED. BOLD SPIRIT.</text></g></g><text x="4" y="229" font-family="Arial,sans-serif" font-size="12" fill="#55606F">10 / AvamCemaniCock</text></g><g transform="translate(784 628)"><rect width="352" height="207" rx="18" fill="#F7E6CD"/><g transform="translate(0 8) scale(.7333)"><g color="#854A24" fill="#854A24"><ellipse cx="240" cy="126" rx="173" ry="107" fill="none" stroke="currentColor" stroke-width="2"/><g transform="translate(213 26) scale(0.54)"><path d="M50 34C18 15 9 48 26 75q24 20 49-1 25-41-6-45-8-1-19 5Z" fill="none" stroke="currentColor" stroke-width="5"/><path d="M49 34V17M51 21q20 0 22-15-21-2-22 15" fill="none" stroke="currentColor" stroke-width="5"/><path d="M25 56q25-9 50 0" fill="none" stroke="currentColor" stroke-width="3"/></g><text x="240" y="123" text-anchor="middle" font-family="Georgia, Times New Roman, serif" font-size="41" font-weight="500" letter-spacing="0">Cummin’s</text><text x="240" y="161" text-anchor="middle" font-family="Georgia, Times New Roman, serif" font-size="32" font-weight="800" letter-spacing="0">CIDER</text><text x="240" y="187" text-anchor="middle" font-family="Arial, sans-serif" font-size="8" font-weight="600" letter-spacing="1.5">PRESSED WITH CHARACTER</text></g></g><text x="4" y="229" font-family="Arial,sans-serif" font-size="12" fill="#55606F">11 / Cummin&#x27;s Cider</text></g><g transform="translate(1160 628)"><rect width="352" height="207" rx="18" fill="#F4DEE5"/><g transform="translate(0 8) scale(.7333)"><g color="#733047" fill="#733047"><text x="67" y="102" text-anchor="start" font-family="Arial, Helvetica, sans-serif" font-size="42" font-weight="800" letter-spacing="0">DICKIN’S</text><text x="67" y="147" text-anchor="start" font-family="Arial, Helvetica, sans-serif" font-size="42" font-weight="800" letter-spacing="0">CIDER</text><g transform="translate(323 56) scale(1.12)"><path d="M20 23q30-13 60 0l-7 58q-23 15-46 0Z" fill="none" stroke="currentColor" stroke-width="5"/><path d="M22 34h55M26 71h48M40 22v63M60 22v63" stroke="currentColor" stroke-width="3"/><path d="M47 52h9" stroke="currentColor" stroke-width="7" stroke-linecap="round"/></g><text x="69" y="184" text-anchor="start" font-family="Arial, sans-serif" font-size="8" font-weight="600" letter-spacing="1.5">ORCHARD TO GLASS</text></g></g><text x="4" y="229" font-family="Arial,sans-serif" font-size="12" fill="#55606F">12 / Dickin&#x27;s Cider</text></g><g transform="translate(32 872)"><rect width="352" height="207" rx="18" fill="#D9F0EE"/><g transform="translate(0 8) scale(.7333)"><g color="#154E59" fill="#154E59"><g transform="translate(49 35) scale(0.77)"><path d="M12 29h76v51H12Z" fill="none" stroke="currentColor" stroke-width="5"/><path d="M14 50q12-13 24 0t24 0 24 0M25 65l7 8 8-8 8 8 8-8" fill="none" stroke="currentColor" stroke-width="4"/><circle cx="69" cy="17" r="5"/><circle cx="51" cy="10" r="3"/></g><text x="61" y="159" text-anchor="start" font-family="Arial, Helvetica, sans-serif" font-size="38" font-weight="800" letter-spacing="0">WOUGH</text><text x="61" y="198" text-anchor="start" font-family="Arial, Helvetica, sans-serif" font-size="38" font-weight="800" letter-spacing="0">TANK</text><text x="258" y="197" text-anchor="start" font-family="Arial, sans-serif" font-size="8" font-weight="600" letter-spacing="1.5">BIG IDEAS. DEEP WATER.</text></g></g><text x="4" y="229" font-family="Arial,sans-serif" font-size="12" fill="#55606F">13 / WoughTank</text></g><g transform="translate(408 872)"><rect width="352" height="207" rx="18" fill="#FBE7D9"/><g transform="translate(0 8) scale(.7333)"><g color="#9B4A39" fill="#9B4A39"><text x="240" y="72" text-anchor="middle" font-family="Georgia, Times New Roman, serif" font-size="43" font-weight="500" letter-spacing="0">OnlyFlans</text><g transform="translate(197 93) scale(0.86)"><path d="M29 34h42l12 39q-33 15-66 0Z" fill="none" stroke="currentColor" stroke-width="5"/><ellipse cx="50" cy="33" rx="21" ry="7"/><path d="M10 82q40 18 80 0" fill="none" stroke="currentColor" stroke-width="4"/><path d="M50 15v8M37 17l3 6M63 17l-3 6" stroke="currentColor" stroke-width="3"/></g><text x="240" y="216" text-anchor="middle" font-family="Arial, sans-serif" font-size="8" font-weight="600" letter-spacing="1.5">DEVOTED TO DESSERT</text></g></g><text x="4" y="229" font-family="Arial,sans-serif" font-size="12" fill="#55606F">14 / OnlyFlans</text></g><g transform="translate(784 872)"><rect width="352" height="207" rx="18" fill="#E9E5FF"/><g transform="translate(0 8) scale(.7333)"><g color="#4C39A2" fill="#4C39A2"><text x="68" y="104" text-anchor="start" font-family="ui-monospace, Menlo, Consolas, monospace" font-size="57" font-weight="800" letter-spacing="0">git</text><text x="68" y="168" text-anchor="start" font-family="ui-monospace, Menlo, Consolas, monospace" font-size="57" font-weight="800" letter-spacing="0">some</text><g transform="translate(305 37) scale(1.14)"><text x="50" y="63" text-anchor="middle" font-family="Menlo, Consolas, monospace" font-size="29" font-weight="800">*(i)*</text></g><text x="73" y="204" text-anchor="start" font-family="Arial, sans-serif" font-size="8" font-weight="600" letter-spacing="1.5">MAKE YOUR NEXT MOVE</text></g></g><text x="4" y="229" font-family="Arial,sans-serif" font-size="12" fill="#55606F">15 / GitSome</text></g><g transform="translate(1160 872)"><rect width="352" height="207" rx="18" fill="#FFE5CE"/><g transform="translate(0 8) scale(.7333)"><g color="#BA4D36" fill="#BA4D36"><g transform="translate(209 20) scale(0.6)"><path d="M49 35C11 13 1 62 32 83q17 14 38-4 36-30 5-48-14-7-26 4Z"/><path d="M50 37q12 18 0 39" fill="none" stroke="#FFE5CE" stroke-width="3"/><path d="M49 25Q51 5 81 9 76 29 49 25"/></g><text x="240" y="126" text-anchor="middle" font-family="Avenir Next, Trebuchet MS, Arial, sans-serif" font-size="43" font-weight="800" letter-spacing="0">peach</text><text x="240" y="169" text-anchor="middle" font-family="Avenir Next, Trebuchet MS, Arial, sans-serif" font-size="43" font-weight="800" letter-spacing="0">please.</text><text x="240" y="204" text-anchor="middle" font-family="Arial, sans-serif" font-size="8" font-weight="600" letter-spacing="1.5">A FRESH LITTLE OBSESSION</text></g></g><text x="4" y="229" font-family="Arial,sans-serif" font-size="12" fill="#55606F">16 / PeachPlease</text></g><g transform="translate(32 1116)"><rect width="352" height="207" rx="18" fill="#E8E8D5"/><g transform="translate(0 8) scale(.7333)"><g color="#394C35" fill="#394C35"><g transform="translate(195 17) scale(0.9)"><path d="M39 8H65L61 39Q70 54 58 72L55 81L77 88Q84 93 78 96H35Q29 95 31 87L36 62Q43 50 36 38Z"/></g><path d="M125 125H355" transform="translate(0 0)" stroke="currentColor" stroke-width="2"/><text x="240" y="164" text-anchor="middle" font-family="Arial, Helvetica, sans-serif" font-size="26" font-weight="800" letter-spacing="0">THE THIRD LEG</text><text x="240" y="194" text-anchor="middle" font-family="Arial, sans-serif" font-size="8" font-weight="600" letter-spacing="1.5">TAKE THE LONG WAY</text></g></g><text x="4" y="229" font-family="Arial,sans-serif" font-size="12" fill="#55606F">17 / TheThirdLeg</text></g><g transform="translate(408 1116)"><rect width="352" height="207" rx="18" fill="#F9EAD4"/><g transform="translate(0 8) scale(.7333)"><g color="#9A5429" fill="#9A5429"><rect x="88" y="20" width="304" height="211" rx="105" fill="none" stroke="currentColor" stroke-width="2"/><g transform="translate(204 28) scale(0.72)"><path d="M15 64q0-37 35-37t35 37v13H15Z" fill="none" stroke="currentColor" stroke-width="5"/><path d="m35 40-6 14m23-17-6 15m22-12-6 14M15 64h70" stroke="currentColor" stroke-width="4" stroke-linecap="round"/><path d="M25 85h50" stroke="currentColor" stroke-width="4"/></g><text x="240" y="151" text-anchor="middle" font-family="Avenir Next, Trebuchet MS, Arial, sans-serif" font-size="40" font-weight="800" letter-spacing="0">nice buns</text><text x="240" y="181" text-anchor="middle" font-family="Arial, sans-serif" font-size="8" font-weight="600" letter-spacing="1.5">BAKED TO BE LOVED</text></g></g><text x="4" y="229" font-family="Arial,sans-serif" font-size="12" fill="#55606F">18 / NiceBuns</text></g><g transform="translate(784 1116)"><rect width="352" height="207" rx="18" fill="#EAE7F8"/><g transform="translate(0 8) scale(.7333)"><g color="#6352B8" fill="#6352B8"><g transform="translate(320 17) scale(0.67)"><path d="M62 13A36 36 0 1 0 86 65 30 30 0 0 1 62 13Z"/><path d="M78 15v17M70 23h16M88 40v10M83 45h10" stroke="currentColor" stroke-width="3"/></g><text x="385" y="139" text-anchor="end" font-family="ui-monospace, Menlo, Consolas, monospace" font-size="35" font-weight="800" letter-spacing="0">afterdark</text><text x="385" y="179" text-anchor="end" font-family="ui-monospace, Menlo, Consolas, monospace" font-size="35" font-weight="800" letter-spacing="0">MODE_</text><text x="385" y="210" text-anchor="end" font-family="Arial, sans-serif" font-size="8" font-weight="600" letter-spacing="1.5">IDEAS AFTER HOURS</text></g></g><text x="4" y="229" font-family="Arial,sans-serif" font-size="12" fill="#55606F">19 / AfterDarkMode</text></g><g transform="translate(1160 1116)"><rect width="352" height="207" rx="18" fill="#F8E3EB"/><g transform="translate(0 8) scale(.7333)"><g color="#AA4763" fill="#AA4763"><g transform="translate(64 26) scale(0.63)"><path d="M14 24h72v45H53L31 87V69H14Z" fill="none" stroke="currentColor" stroke-width="5" stroke-linejoin="round"/><path d="M50 58 32 43q-7-16 9-16 7 0 9 7 2-7 9-7 16 0 9 16Z"/></g><text x="77" y="149" text-anchor="start" font-family="Avenir Next, Trebuchet MS, Arial, sans-serif" font-size="43" font-weight="800" letter-spacing="0">no hard</text><text x="77" y="193" text-anchor="start" font-family="Avenir Next, Trebuchet MS, Arial, sans-serif" font-size="43" font-weight="800" letter-spacing="0">feelings</text><text x="80" y="222" text-anchor="start" font-family="Arial, sans-serif" font-size="8" font-weight="600" letter-spacing="1.5">A LITTLE UNDERSTANDING</text></g></g><text x="4" y="229" font-family="Arial,sans-serif" font-size="12" fill="#55606F">20 / NoHardFeelings</text></g><g transform="translate(32 1360)"><rect width="352" height="207" rx="18" fill="#EBF05C"/><g transform="translate(0 8) scale(.7333)"><g color="#353635" fill="#353635"><text x="40" y="101" text-anchor="start" font-family="Arial, Helvetica, sans-serif" font-size="40" font-weight="800" letter-spacing="0">IF YOU HARD.</text><text x="40" y="148" text-anchor="start" font-family="Arial, Helvetica, sans-serif" font-size="40" font-weight="800" letter-spacing="0">THEN YOU HARD</text><text x="43" y="186" text-anchor="start" font-family="Arial, sans-serif" font-size="8" font-weight="600" letter-spacing="1.5">COMMIT TO YOUR OWN PACE</text><path d="M43 209H435" transform="translate(0 0)" stroke="currentColor" stroke-width="2"/></g></g><text x="4" y="229" font-family="Arial,sans-serif" font-size="12" fill="#55606F">21 / If You Hard.Then You Hard</text></g><g transform="translate(408 1360)"><rect width="352" height="207" rx="18" fill="#DFEAFE"/><g transform="translate(0 8) scale(.7333)"><g color="#21579A" fill="#21579A"><text x="216" y="98" text-anchor="end" font-family="Avenir Next, Trebuchet MS, Arial, sans-serif" font-size="50" font-weight="800" letter-spacing="0">work</text><g transform="translate(235 54) scale(0.54)"><rect x="13" y="22" width="31" height="56" rx="6"/><path d="m59 24 30 23q4 3 0 6L59 76Z"/><path d="M25 36h7M25 46h7M25 56h7" stroke="#DFEAFE" stroke-width="3"/></g><text x="269" y="176" text-anchor="middle" font-family="Avenir Next, Trebuchet MS, Arial, sans-serif" font-size="50" font-weight="800" letter-spacing="0">play</text><text x="240" y="213" text-anchor="middle" font-family="Arial, sans-serif" font-size="8" font-weight="600" letter-spacing="1.5">FIND YOUR BALANCE</text></g></g><text x="4" y="229" font-family="Arial,sans-serif" font-size="12" fill="#55606F">22 / Work Play</text></g><text x="32" y="1632" font-family="Arial,sans-serif" font-size="12" fill="#55606F">Fictional demo identities. No affiliation or endorsement implied.</text></svg>